<?xml version="1.0" encoding="UTF-8" standalone="no"?>
<svg
   width="135.46667mm"
   height="135.46666mm"
   viewBox="0 0 135.46668 135.46666"
   version="1.1"
   id="svg8"
   sodipodi:docname="cpu.svg"
   inkscape:version="1.1.2 (0a00cf5339, 2022-02-04, custom)"
   xmlns:inkscape="http://www.inkscape.org/namespaces/inkscape"
   xmlns:sodipodi="http://sodipodi.sourceforge.net/DTD/sodipodi-0.dtd"
   xmlns="http://www.w3.org/2000/svg"
   xmlns:svg="http://www.w3.org/2000/svg">
  <sodipodi:namedview
     id="namedview24"
     pagecolor="#777d82"
     bordercolor="#666666"
     borderopacity="1.0"
     inkscape:pageshadow="2"
     inkscape:pageopacity="0"
     inkscape:pagecheckerboard="0"
     inkscape:document-units="mm"
     showgrid="false"
     inkscape:zoom="0.59178764"
     inkscape:cx="458.77944"
     inkscape:cy="198.55095"
     inkscape:window-width="1920"
     inkscape:window-height="1018"
     inkscape:window-x="-6"
     inkscape:window-y="-6"
     inkscape:window-maximized="1"
     inkscape:current-layer="svg8" />
  <defs
     id="defs2" />
  <rect
     style="fill:#ffffff;fill-opacity:1;stroke-width:0.0886523"
     id="rect1783"
     width="27.475632"
     height="29.22414"
     x="36.416668"
     y="35.483311" />
  <rect
     style="fill:#ffffff;fill-opacity:1;stroke-width:0.0888228"
     id="rect1783-6"
     width="27.619598"
     height="29.183683"
     x="36.321083"
     y="70.696243" />
  <rect
     style="fill:#ffffff;fill-opacity:1;stroke-width:0.0885393"
     id="rect1783-2"
     width="27.478006"
     height="29.14711"
     x="71.625351"
     y="70.756905" />
  <rect
     style="fill:#ffffff;fill-opacity:1;stroke-width:0.0889009"
     id="rect1783-1"
     width="27.51515"
     height="29.345999"
     x="71.580887"
     y="35.414024" />
  <path
     transform="scale(0.26458333)"
     d="m 160.03516,0.12109375 c -1.61017,0.0374173 -2.91171,0.0806928 -3.86133,0.1328125 -0.47481,0.0260787 -0.85425,0.0482434 -1.20313,0.0878906 -0.17442,0.0196535 -0.32244,0.0345759 -0.59765,0.0976562 -0.13762,0.0313701 -0.29288,0.0537614 -0.65625,0.22070313 -0.0909,0.041726 -0.19548,0.097684 -0.32618,0.17773437 -0.13069,0.0800882 -0.47074,0.35958955 -0.47265,0.36132815 -0.002,0.00175 -0.61818,0.7814456 -0.61914,0.7832031 -9.6e-4,0.00176 -0.36914,1.4513599 -0.36914,1.453125 V 55.707031 h -37.90625 c -31.942604,0 -58.316409,26.373805 -58.316409,58.316409 v 37.90625 H 3.4355469 c -0.00177,0 -1.4513638,0.368 -1.453125,0.36914 -0.00176,9.8e-4 -0.7814494,0.61916 -0.7832031,0.62109 -0.00175,0.002 -0.28123999,0.33994 -0.36132818,0.4707 -0.0800882,0.13078 -0.13600839,0.23547 -0.17773437,0.32618 -0.16694173,0.36321 -0.18328469,0.51863 -0.21484375,0.65625 -0.0630803,0.27515 -0.0837109,0.42323 -0.10351562,0.59765 -0.0396473,0.34885 -0.0618119,0.72834 -0.0878906,1.20313 -0.0521197,0.94964 -0.0955464,2.25116 -0.1328125,3.86133 -0.12849162,8.71977 -0.1947859,16.40279 0,25.08398 0.0374173,1.61015 0.0806928,2.91172 0.1328125,3.86133 0.0260787,0.47482 0.0482434,0.85424 0.0878906,1.20312 0.0196535,0.17424 0.0404353,0.32251 0.10351562,0.59766 0.0313701,0.13757 0.047902,0.29291 0.21484375,0.65625 0.041726,0.0907 0.097684,0.19383 0.17773437,0.32422 0.0800882,0.13077 0.35958958,0.47073 0.36132818,0.47266 0.00175,0.002 0.7794924,0.62014 0.78125,0.62109 0.00176,9.4e-4 1.453313,0.36914 1.4550781,0.36914 H 55.707031 v 42.12695 H 3.4355469 c -0.00177,0 -1.4513638,0.36996 -1.453125,0.3711 -0.00176,9.4e-4 -0.7814494,0.61725 -0.7832031,0.61914 -0.00175,0.002 -0.28123999,0.3419 -0.36132818,0.47265 -0.0800882,0.13077 -0.13600839,0.23351 -0.17773437,0.32422 -0.16694173,0.36359 -0.18328469,0.52055 -0.21484375,0.65821 -0.0630803,0.27514 -0.0837109,0.42323 -0.10351562,0.59765 -0.0396473,0.34885 -0.0618119,0.7283 -0.0878906,1.20313 -0.0521197,0.94959 -0.0955464,2.24922 -0.1328125,3.85937 -0.1284875,8.71968 -0.19477323,16.40365 0,25.08399 0.0375722,1.72039 0.0931183,3.44272 0.2207031,5.06445 0.0196535,0.17423 0.0404353,0.32251 0.10351562,0.59765 0.0313701,0.13758 0.047902,0.29488 0.21484375,0.65821 0.041726,0.0907 0.097684,0.19382 0.17773437,0.32422 0.0800882,0.13077 0.35958958,0.47076 0.36132818,0.47265 0.00175,0.002 0.7794924,0.61816 0.78125,0.61914 0.00176,9.5e-4 1.453313,0.36914 1.4550781,0.36914 H 55.707031 v 42.12891 H 3.4355469 c -0.00177,0 -1.4513638,0.36801 -1.453125,0.36914 -0.00176,9.8e-4 -0.7814494,0.61721 -0.7832031,0.61914 -0.00175,0.002 -0.28123999,0.34189 -0.36132818,0.47266 -0.0800882,0.13077 -0.13600839,0.23546 -0.17773437,0.32617 -0.16694173,0.36359 -0.18328469,0.51864 -0.21484375,0.65625 -0.0630803,0.27515 -0.0837109,0.42319 -0.10351562,0.59766 -0.0396473,0.34885 -0.0618119,0.72834 -0.0878906,1.20312 -0.0521197,0.94965 -0.0955464,2.25118 -0.1328125,3.86133 -0.12848867,8.71978 -0.19479024,16.40275 0,25.08398 0.0374173,1.61017 0.0806928,2.90977 0.1328125,3.85938 0.0260787,0.47482 0.0482434,0.85424 0.0878906,1.20312 0.0196535,0.17462 0.0404353,0.32448 0.10351562,0.59961 0.0313701,0.13758 0.047902,0.29295 0.21484375,0.65625 0.041726,0.0907 0.097684,0.19383 0.17773437,0.32422 0.0800882,0.13077 0.35958958,0.47077 0.36132818,0.47266 0.00175,0.002 0.7794924,0.62015 0.78125,0.62109 0.00176,9.8e-4 1.453313,0.36914 1.4550781,0.36914 H 55.707031 v 37.90625 c 0,31.9426 26.373805,58.32422 58.316409,58.32422 h 37.90625 v 52.26367 c 0,0.002 0.36816,1.45135 0.36914,1.45313 9.6e-4,0.002 0.61723,0.78928 0.61914,0.79101 0.002,0.002 0.34196,0.27377 0.47265,0.35352 0.1307,0.0801 0.23532,0.13578 0.32618,0.17773 0.3634,0.16706 0.51862,0.18896 0.65625,0.22071 0.27526,0.0631 0.42321,0.0761 0.59765,0.0957 0.34889,0.0397 0.72832,0.0638 1.20313,0.0898 0.94962,0.0522 2.25117,0.0958 3.86133,0.13282 8.71989,0.14268 16.40246,0.1953 25.08398,0 1.61016,-0.0378 2.90976,-0.081 3.85938,-0.13282 0.4748,-0.0264 0.85619,-0.0505 1.20507,-0.0898 0.17443,-0.0189 0.32242,-0.0337 0.59766,-0.0957 0.13761,-0.0302 0.29286,-0.0537 0.65625,-0.22071 0.0909,-0.0416 0.19352,-0.0976 0.32422,-0.17773 0.13069,-0.0801 0.47075,-0.352 0.47266,-0.35352 0.002,-0.002 0.62013,-0.78927 0.62109,-0.79101 9.5e-4,-0.002 0.36914,-1.45135 0.36914,-1.45313 v -52.26367 h 42.12695 v 52.26367 c 0,0.002 0.36816,1.45135 0.36914,1.45313 9.6e-4,0.002 0.61919,0.78928 0.6211,0.79101 0.002,0.002 0.34197,0.27377 0.47265,0.35352 0.1307,0.0801 0.23336,0.13578 0.32422,0.17773 0.3634,0.16706 0.52058,0.18896 0.65821,0.22071 0.27526,0.0631 0.42321,0.0761 0.59765,0.0957 0.34889,0.0397 0.72832,0.0638 1.20313,0.0898 0.94961,0.0522 2.24921,0.0962 3.85937,0.13282 8.71981,0.14268 16.40334,0.19529 25.08399,0 1.61015,-0.0378 2.91171,-0.081 3.86132,-0.13282 0.47481,-0.0264 0.85425,-0.0505 1.20313,-0.0898 0.17442,-0.0189 0.32243,-0.0341 0.59765,-0.0957 0.13762,-0.0302 0.2948,-0.0537 0.65821,-0.22071 0.0909,-0.0416 0.19352,-0.0976 0.32422,-0.17773 0.13069,-0.0801 0.47076,-0.352 0.47265,-0.35352 0.002,-0.002 0.61819,-0.78927 0.61914,-0.79101 9.6e-4,-0.002 0.36914,-1.45135 0.36914,-1.45313 v -52.26367 h 42.12891 v 52.26367 c 0,0.002 0.36801,1.45135 0.36914,1.45313 9.8e-4,0.002 0.61721,0.78928 0.61914,0.79101 0.002,0.002 0.34189,0.27377 0.47266,0.35352 0.13077,0.0801 0.23546,0.13578 0.32617,0.17773 0.36359,0.16706 0.51864,0.18896 0.65625,0.22071 0.27515,0.0631 0.42319,0.0761 0.59766,0.0957 0.34885,0.0397 0.72834,0.0638 1.20312,0.0898 0.94965,0.0522 2.25118,0.0962 3.86133,0.13282 8.7199,0.14268 16.40244,0.1953 25.08398,0 1.61017,-0.0378 2.90977,-0.081 3.85938,-0.13282 0.47482,-0.0264 0.85424,-0.0505 1.20312,-0.0898 0.17462,-0.0189 0.32448,-0.0341 0.59961,-0.0957 0.13758,-0.0302 0.29295,-0.0537 0.65625,-0.22071 0.0907,-0.0416 0.19383,-0.0976 0.32422,-0.17773 0.13077,-0.0801 0.47077,-0.352 0.47266,-0.35352 0.002,-0.002 0.62015,-0.78927 0.62109,-0.79101 9.8e-4,-0.002 0.36914,-1.45135 0.36914,-1.45313 v -52.26367 h 37.9043 c 31.9426,0 58.32617,-26.38162 58.32617,-58.32422 v -37.90625 h 52.26367 c 0.002,0 1.45135,-0.368 1.45313,-0.36914 0.002,-9.4e-4 0.78928,-0.6192 0.79101,-0.62109 0.002,-0.002 0.27377,-0.34189 0.35352,-0.47266 0.0801,-0.13077 0.13578,-0.23351 0.17773,-0.32422 0.16706,-0.36321 0.18896,-0.5186 0.22071,-0.65625 0.0631,-0.27515 0.0761,-0.42514 0.0957,-0.59961 0.0397,-0.34885 0.0638,-0.7283 0.0898,-1.20312 0.0522,-0.94961 0.0962,-2.24921 0.13282,-3.85938 0.14268,-8.7198 0.19529,-16.40333 0,-25.08398 -0.0378,-1.61015 -0.081,-2.91168 -0.13282,-3.86133 -0.0264,-0.47478 -0.0505,-0.85427 -0.0898,-1.20312 -0.0189,-0.17462 -0.0341,-0.32247 -0.0957,-0.59766 -0.0302,-0.13757 -0.0537,-0.29291 -0.22071,-0.65625 -0.0416,-0.0907 -0.0976,-0.19578 -0.17773,-0.32617 -0.0801,-0.13077 -0.352,-0.47077 -0.35352,-0.47266 -0.002,-0.002 -0.78927,-0.61816 -0.79101,-0.61914 -0.002,-9.4e-4 -1.45135,-0.36914 -1.45313,-0.36914 h -52.26367 v -42.12891 h 52.26367 c 0.002,0 1.45135,-0.36838 1.45313,-0.36914 0.002,-9.8e-4 0.78928,-0.61721 0.79101,-0.61914 0.002,-0.002 0.27377,-0.34186 0.35352,-0.47265 0.0801,-0.13077 0.13578,-0.23351 0.17773,-0.32422 0.16706,-0.36321 0.18896,-0.52058 0.22071,-0.65821 0.0631,-0.27514 0.0761,-0.42323 0.0957,-0.59765 0.0397,-0.34885 0.0638,-0.72833 0.0898,-1.20313 0.0522,-0.94964 0.0962,-2.25117 0.13282,-3.86132 0.14268,-8.7199 0.1953,-16.40246 0,-25.08399 -0.0378,-1.61015 -0.081,-2.90978 -0.13282,-3.85937 -0.0264,-0.47483 -0.0505,-0.85424 -0.0898,-1.20313 -0.0189,-0.17423 -0.0341,-0.32251 -0.0957,-0.59765 -0.0302,-0.13758 -0.0537,-0.29488 -0.22071,-0.65821 -0.0416,-0.0907 -0.0976,-0.19382 -0.17773,-0.32422 -0.0801,-0.13077 -0.352,-0.47073 -0.35352,-0.47265 -0.002,-0.002 -0.78927,-0.6182 -0.79101,-0.61914 -0.002,-9.5e-4 -1.45135,-0.3711 -1.45313,-0.3711 h -52.26367 v -42.12695 h 52.26367 c 0.002,0 1.45135,-0.36801 1.45313,-0.36914 0.002,-9.5e-4 0.78928,-0.61921 0.79101,-0.62109 0.002,-0.002 0.27377,-0.3419 0.35352,-0.47266 0.0801,-0.13077 0.13578,-0.23351 0.17773,-0.32422 0.16706,-0.36359 0.18896,-0.5186 0.22071,-0.65625 0.0631,-0.27515 0.0761,-0.42323 0.0957,-0.59766 0.0397,-0.34885 0.0638,-0.7283 0.0898,-1.20312 0.0522,-0.94961 0.0962,-2.25118 0.13282,-3.86133 0.14268,-8.71981 0.19529,-16.40332 0,-25.08398 -0.0378,-1.61017 -0.081,-2.91169 -0.13282,-3.86133 -0.0264,-0.47479 -0.0505,-0.85424 -0.0898,-1.20313 -0.0189,-0.17423 -0.0341,-0.32251 -0.0957,-0.59765 -0.0302,-0.13758 -0.0537,-0.29292 -0.22071,-0.65625 -0.0416,-0.0907 -0.0976,-0.19578 -0.17773,-0.32618 -0.0801,-0.13077 -0.352,-0.46881 -0.35352,-0.4707 -0.002,-0.002 -0.78927,-0.62011 -0.79101,-0.62109 -0.002,-9.5e-4 -1.45135,-0.36914 -1.45313,-0.36914 h -52.26367 v -37.90625 c 0,-31.942604 -26.38357,-58.316409 -58.32617,-58.316409 h -37.9043 V 3.4355469 c 0,-0.00177 -0.368,-1.4513638 -0.36914,-1.453125 -9.4e-4,-0.00176 -0.6192,-0.7814494 -0.62109,-0.7832031 -0.002,-0.00175 -0.34189,-0.28127778 -0.47266,-0.36132818 -0.13077,-0.0800882 -0.23351,-0.13600839 -0.32422,-0.17773437 -0.36359,-0.16694173 -0.5186,-0.18918187 -0.65625,-0.22070313 -0.27515,-0.0630803 -0.42514,-0.0778138 -0.59961,-0.0976562 -0.34885,-0.0396473 -0.7283,-0.0618119 -1.20312,-0.0878906 -0.94961,-0.0521197 -2.24921,-0.0955464 -3.85938,-0.1328125 -8.71968,-0.12848783 -16.40364,-0.19477336 -25.08398,0 -1.61015,0.0374173 -2.91168,0.0806928 -3.86133,0.1328125 -0.47478,0.0260787 -0.85427,0.0482434 -1.20312,0.0878906 -0.17462,0.0196535 -0.32247,0.0345759 -0.59766,0.0976562 -0.13757,0.0313701 -0.29291,0.0537614 -0.65625,0.22070313 -0.0907,0.041726 -0.19578,0.097684 -0.32617,0.17773437 -0.13077,0.0800882 -0.47077,0.35958958 -0.47266,0.36132818 -0.002,0.00175 -0.61816,0.7814456 -0.61914,0.7832031 -9.4e-4,0.00176 -0.36914,1.4513599 -0.36914,1.453125 V 55.707031 H 276.64648 V 3.4355469 c 0,-0.00177 -0.36815,-1.4513638 -0.36914,-1.453125 -9.5e-4,-0.00176 -0.61722,-0.7814494 -0.61914,-0.7832031 -0.002,-0.00175 -0.34198,-0.28127778 -0.47265,-0.36132818 -0.1307,-0.0800882 -0.23336,-0.13600839 -0.32422,-0.17773437 -0.3634,-0.16694173 -0.52058,-0.18918187 -0.65821,-0.22070313 -0.27526,-0.06308 -0.42321,-0.0778138 -0.59765,-0.0976562 -0.34889,-0.0396473 -0.72832,-0.0618119 -1.20313,-0.0878906 -0.94961,-0.0521197 -2.25117,-0.0955464 -3.86132,-0.1328125 -8.71978,-0.12849012 -16.40278,-0.19478821 -25.08399,-7e-8 -1.61016,0.0374173 -2.90976,0.0806928 -3.85937,0.1328125 -0.47481,0.0260787 -0.85425,0.0482434 -1.20313,0.0878906 -0.17442,0.0196535 -0.32243,0.0345759 -0.59765,0.0976562 -0.13762,0.0313701 -0.2948,0.0537614 -0.65821,0.22070313 -0.0909,0.041726 -0.19352,0.097684 -0.32422,0.17773437 -0.13069,0.0800882 -0.47075,0.35958955 -0.47265,0.36132815 -0.002,0.00175 -0.62014,0.7814456 -0.6211,0.7832031 -9.5e-4,0.00176 -0.36914,1.4513599 -0.36914,1.453125 V 55.707031 H 193.22461 V 3.4355469 c 0,-0.00177 -0.36816,-1.4513638 -0.36914,-1.453125 -9.6e-4,-0.00176 -0.61919,-0.7814494 -0.62109,-0.7832031 -0.002,-0.00175 -0.34197,-0.28127778 -0.47266,-0.36132818 -0.1307,-0.0800882 -0.23336,-0.13600839 -0.32422,-0.17773437 -0.3634,-0.16694173 -0.51863,-0.18918187 -0.65625,-0.22070313 -0.27526,-0.0630803 -0.42322,-0.0778138 -0.59766,-0.0976562 -0.34888,-0.0396471 -0.73028,-0.0618119 -1.20507,-0.0878906 -0.94963,-0.0521197 -2.24922,-0.0955464 -3.85938,-0.1328125 -8.71969,-0.12848699 -16.40362,-0.19477423 -25.08398,-7e-8 z M 114.02344,98.064453 h 283.95117 c 9.20572,0 15.96094,6.753247 15.96094,15.958987 v 283.95312 c 0,9.20572 -6.75522,15.95899 -15.96094,15.95899 H 114.02344 c -9.20574,0 -15.958987,-6.75327 -15.958987,-15.95899 V 114.02344 c 0,-9.20574 6.753247,-15.958987 15.958987,-15.958987 z"
     style="color:#000000;font-style:normal;font-variant:normal;font-weight:normal;font-stretch:normal;font-size:medium;line-height:normal;font-family:sans-serif;font-variant-ligatures:normal;font-variant-position:normal;font-variant-caps:normal;font-variant-numeric:normal;font-variant-alternates:normal;font-variant-east-asian:normal;font-feature-settings:normal;font-variation-settings:normal;text-indent:0;text-align:start;text-decoration:none;text-decoration-line:none;text-decoration-style:solid;text-decoration-color:#000000;letter-spacing:normal;word-spacing:normal;text-transform:none;writing-mode:lr-tb;direction:ltr;text-orientation:mixed;dominant-baseline:auto;baseline-shift:baseline;text-anchor:start;white-space:normal;shape-padding:0;shape-margin:0;inline-size:0;clip-rule:nonzero;display:inline;overflow:visible;visibility:visible;isolation:auto;mix-blend-mode:normal;color-interpolation:sRGB;color-interpolation-filters:linearRGB;solid-color:#000000;solid-opacity:1;vector-effect:none;fill:#ffffff;fill-opacity:1;fill-rule:nonzero;stroke:none;stroke-width:3.77953;stroke-linecap:butt;stroke-linejoin:round;stroke-miterlimit:20.1;stroke-dasharray:none;stroke-dashoffset:0;stroke-opacity:1;color-rendering:auto;image-rendering:auto;shape-rendering:auto;text-rendering:auto;enable-background:accumulate;stop-color:#000000"
     id="path3251" />
</svg>
